<?xml version="1.0" encoding="utf-8"?>
<!-- Generator: Adobe Illustrator 22.0.1, SVG Export Plug-In . SVG Version: 6.00 Build 0)  -->
<svg version="1.1" id="Layer_1" xmlns="http://www.w3.org/2000/svg" xmlns:xlink="http://www.w3.org/1999/xlink" x="0px" y="0px"
	 viewBox="0 0 1440 1440" style="enable-background:new 0 0 1440 1440;" xml:space="preserve">
<style type="text/css">
	.st0{fill:#DADADA;}
</style>
<g>
	<path class="st0" d="M720.3,270c156.4,0,312.8,0,469.3,0c38.5,0,69.7,28.4,78.2,70.7c10.9,54.3-25.6,108-74.3,109.3
		c-1.6,0-3.3,0-4.9,0c-312.4,0-624.9,0-937.3,0c-38.1,0-69.7-27.3-78.5-67.6C160.3,325,197.4,270.1,249.2,270
		c100.4-0.2,200.8-0.1,301.2-0.1C607.1,270,663.7,270,720.3,270z"/>
	<path class="st0" d="M720.3,630c156.4,0,312.8,0,469.3,0c38.5,0,69.7,28.4,78.2,70.7c10.9,54.3-25.6,108-74.3,109.3
		c-1.6,0-3.3,0-4.9,0c-312.4,0-624.9,0-937.3,0c-38.1,0-69.7-27.3-78.5-67.6C160.3,685,197.4,630.1,249.2,630
		c100.4-0.2,200.8-0.1,301.2-0.1C607.1,630,663.7,630,720.3,630z"/>
	<path class="st0" d="M719.7,1170c-156.4,0-312.8,0-469.3,0c-38.4,0-69.8-28.5-78.2-70.7c-10.9-54.3,25.7-108.1,74.3-109.3
		c1.6,0,3.3,0,4.9,0c312.4,0,624.9,0,937.3,0c39.2,0,70.4,27.8,79.1,70.3c11.1,54.6-25.5,108.9-74.5,109.5
		c-41.5,0.5-83,0.1-124.5,0.1C952.4,1170,836,1170,719.7,1170z"/>
</g>
</svg>
