<?xml version="1.0" encoding="utf-8"?>
<!-- Generator: Adobe Illustrator 22.0.1, SVG Export Plug-In . SVG Version: 6.00 Build 0)  -->
<svg version="1.1" id="Layer_1" xmlns="http://www.w3.org/2000/svg" xmlns:xlink="http://www.w3.org/1999/xlink" x="0px" y="0px"
	 viewBox="0 0 902 484" style="enable-background:new 0 0 902 484;" xml:space="preserve">
<style type="text/css">
	.st0{fill:#222222;}
	.st1{fill:#486F84;}
</style>
<g>
	<path class="st0" d="M48.4,221.2v-22.6h32.4c6.4,0,11.5-1.9,15.2-5.7c3.7-3.8,5.6-9,5.6-15.5v-45.6H52.4v-22.6h74.2V178
		c0,13.3-4,23.9-12,31.6c-8,7.7-18.8,11.6-32.4,11.6H48.4z M113.8,90.8c-5.1,0-9.1-1.3-12-3.9c-2.9-2.6-4.4-6.1-4.4-10.5
		c0-4.4,1.5-7.9,4.4-10.5c2.9-2.6,6.9-3.9,12-3.9c5.1,0,9.1,1.3,12,3.9c2.9,2.6,4.4,6.1,4.4,10.5c0,4.4-1.5,7.9-4.4,10.5
		C122.8,89.5,118.8,90.8,113.8,90.8z"/>
	<path class="st0" d="M215.6,221.2c-14,0-25-3.9-33-11.7c-8-7.8-12-18.4-12-31.9v-68.4h25v68.2c0,7.1,1.7,12.5,5.2,16.3
		c3.5,3.8,8.4,5.7,14.8,5.7c6.3,0,11.2-1.9,14.7-5.7c3.5-3.8,5.3-9.2,5.3-16.3v-68.2h25v68.4c0,13.5-4.1,24.1-12.2,31.9
		C240.2,217.3,229.3,221.2,215.6,221.2z"/>
	<path class="st0" d="M331.4,221c-8.4,0-15.8-1.3-22.2-3.9c-6.4-2.6-11.4-6.3-14.9-11.1c-3.5-4.8-5.3-10.5-5.3-17h25.2
		c0,3.9,1.6,6.8,4.7,8.9c3.1,2.1,7.4,3.1,12.7,3.1h8.6c6.3,0,10.9-1.1,14-3.4c3.1-2.3,4.6-5.4,4.6-9.4c0-7.6-5.7-12.3-17-14l-15.4-2
		c-23.1-3.3-34.6-14.3-34.6-33c0-10.4,3.5-18.3,10.5-23.7c7-5.4,17.2-8.1,30.5-8.1h7.6c12.4,0,22.4,2.8,29.9,8.3
		c7.5,5.5,11.3,12.8,11.3,21.9h-25.2c0-3.2-1.4-5.7-4.2-7.5c-2.8-1.8-6.8-2.7-12-2.7h-7.6c-10.9,0-16.4,3.9-16.4,11.8
		c0,6.8,4.9,10.9,14.6,12.4l15.6,2.4c12.4,1.7,21.6,5.3,27.7,10.8c6.1,5.5,9.1,13.1,9.1,22.8c0,10.5-3.6,18.7-10.9,24.6
		c-7.3,5.9-18,8.8-32.1,8.8H331.4z"/>
	<path class="st0" d="M467.6,219.2c-10.3,0-18.4-3-24.5-8.9c-6.1-5.9-9.1-14-9.1-24.1v-54.4h-29.8v-22.6H434v-31h25.2v31h42.2v22.6
		h-42.2v53.8c0,3.2,0.9,5.8,2.7,7.9c1.8,2.1,4.3,3.1,7.5,3.1h30v22.6H467.6z"/>
	<path class="st0" d="M530.8,219.2v-22.6h37.6v-64.8h-33.6v-22.6h58.6v87.4h33.8v22.6H530.8z M579.2,90.8c-5.1,0-9.1-1.3-12-3.9
		c-2.9-2.6-4.4-6.1-4.4-10.5c0-4.4,1.5-7.9,4.4-10.5c2.9-2.6,6.9-3.9,12-3.9c5.1,0,9.1,1.3,12,3.9c2.9,2.6,4.4,6.1,4.4,10.5
		c0,4.4-1.5,7.9-4.4,10.5C588.2,89.5,584.2,90.8,579.2,90.8z"/>
	<path class="st1" d="M714.1,232.4L651.1,62h26l63,170.4H714.1z"/>
	<path class="st1" d="M763,219.2v-110h24.4v21h0.4c1.2-7.2,4.3-12.8,9.4-16.9c5.1-4.1,11.7-6.1,19.8-6.1c10.8,0,19.4,3.6,25.9,10.8
		c6.5,7.2,9.7,16.9,9.7,29v72.2h-25v-69.6c0-6.7-1.8-11.8-5.3-15.4c-3.5-3.6-8.3-5.4-14.3-5.4c-6.3,0-11.2,1.9-14.7,5.6
		c-3.5,3.7-5.3,9.1-5.3,16v68.8H763z"/>
	<path class="st0" d="M76.6,420v-75.2H46.4v-22.6h30.2v-16.6c0-9.6,3.2-17.3,9.6-23c6.4-5.7,14.9-8.6,25.4-8.6h32.2v22h-31.6
		c-3.2,0-5.8,0.9-7.7,2.7c-1.9,1.8-2.9,4.2-2.9,7.3v16.2h42.2v22.6h-42.2V420H76.6z"/>
	<path class="st0" d="M170.8,420v-22.6h37.6v-64.8h-33.6V310h58.6v87.4h33.8V420H170.8z M219.2,291.6c-5.1,0-9.1-1.3-12-3.9
		c-2.9-2.6-4.4-6.1-4.4-10.5c0-4.4,1.5-7.9,4.4-10.5c2.9-2.6,6.9-3.9,12-3.9c5.1,0,9.1,1.3,12,3.9c2.9,2.6,4.4,6.1,4.4,10.5
		c0,4.4-1.5,7.9-4.4,10.5C228.2,290.3,224.2,291.6,219.2,291.6z"/>
	<path class="st0" d="M331.4,421.8c-8.4,0-15.8-1.3-22.2-3.9c-6.4-2.6-11.4-6.3-14.9-11.1c-3.5-4.8-5.3-10.5-5.3-17h25.2
		c0,3.9,1.6,6.8,4.7,8.9c3.1,2.1,7.4,3.1,12.7,3.1h8.6c6.3,0,10.9-1.1,14-3.4c3.1-2.3,4.6-5.4,4.6-9.4c0-7.6-5.7-12.3-17-14l-15.4-2
		c-23.1-3.3-34.6-14.3-34.6-33c0-10.4,3.5-18.3,10.5-23.7c7-5.4,17.2-8.1,30.5-8.1h7.6c12.4,0,22.4,2.8,29.9,8.3
		c7.5,5.5,11.3,12.8,11.3,21.9h-25.2c0-3.2-1.4-5.7-4.2-7.5c-2.8-1.8-6.8-2.7-12-2.7h-7.6c-10.9,0-16.4,3.9-16.4,11.8
		c0,6.8,4.9,10.9,14.6,12.4l15.6,2.4c12.4,1.7,21.6,5.3,27.7,10.8c6.1,5.5,9.1,13.1,9.1,22.8c0,10.5-3.6,18.7-10.9,24.6
		c-7.3,5.9-18,8.8-32.1,8.8H331.4z"/>
	<path class="st0" d="M411,420V274h25v36l-0.6,21h0.4c1.2-7.2,4.3-12.8,9.4-16.9c5.1-4.1,11.7-6.1,19.8-6.1
		c10.8,0,19.4,3.6,25.9,10.8c6.5,7.2,9.7,16.9,9.7,29V420h-25v-69.6c0-6.7-1.8-11.8-5.3-15.4c-3.5-3.6-8.3-5.4-14.3-5.4
		c-6.3,0-11.2,1.9-14.7,5.6c-3.5,3.7-5.3,9.1-5.3,16V420H411z"/>
	<path class="st0" d="M575.8,422c-9.3,0-17.5-1.8-24.4-5.4c-6.9-3.6-12.3-8.6-16.1-15.1c-3.8-6.5-5.7-14-5.7-22.7v-27.6
		c0-8.7,1.9-16.2,5.7-22.7c3.8-6.5,9.2-11.5,16.1-15.1c6.9-3.6,15.1-5.4,24.4-5.4c9.2,0,17.2,1.8,24.1,5.4c6.9,3.6,12.2,8.6,16,15.1
		c3.8,6.5,5.7,14,5.7,22.7V371h-67.8v7.8c0,15.6,7.4,23.4,22.2,23.4c11.5,0,18.2-3.8,20.2-11.4h24.6c-1.9,9.5-6.9,17-15.1,22.7
		C597.5,419.1,587.5,422,575.8,422z M553.8,351.2v4.2l43.6-0.2V351c0-7.6-1.8-13.4-5.4-17.5c-3.6-4.1-9-6.1-16.2-6.1
		c-7.3,0-12.8,2.1-16.5,6.2C555.6,337.7,553.8,343.6,553.8,351.2z"/>
	<path class="st0" d="M654.2,422V310h24.4v21h0.6c1.1-7.2,4.3-12.8,9.6-16.9c5.3-4.1,12.1-6.1,20.4-6.1c11.3,0,20.4,3.7,27.2,11.1
		c6.8,7.4,10.2,17.5,10.2,30.3v9h-26.2v-7.2c0-6.8-1.8-12.1-5.3-15.9c-3.5-3.8-8.6-5.7-15.3-5.7c-13.7,0-20.6,7.7-20.6,23V422H654.2
		z"/>
	<path class="st0" d="M759.6,422v-22.6h96V422H759.6z"/>
</g>
</svg>
