<?xml version="1.0" encoding="utf-8"?>
<!-- Generator: Adobe Illustrator 22.0.1, SVG Export Plug-In . SVG Version: 6.00 Build 0)  -->
<svg version="1.1" id="Layer_1" xmlns="http://www.w3.org/2000/svg" xmlns:xlink="http://www.w3.org/1999/xlink" x="0px" y="0px"
	 viewBox="0 0 1440 1440" style="enable-background:new 0 0 1440 1440;" xml:space="preserve">
<style type="text/css">
	.st0{fill:#DADADA;}
</style>
<g>
	<path class="st0" d="M530.4,714.7c-84.2-78.6-137.7-126.5-202.2-189c-92.3-89.5-183.4-180.1-274-271.3
		c-66.2-66.7-71.9-151-16.4-210.1C91.4-12.9,190.3-11.6,254,51.7c139.6,138.7,277,279.6,415.5,419.4c15.3,15.4,31.6,29.9,55.1,52
		c62.6-64.2,122.3-125.8,182.4-187c91.5-93.1,182.9-186.3,275.1-278.7c65.7-65.8,165.6-71.7,220.3-14.7
		c55.5,57.9,48.8,147-18.6,214.6C1246.1,395.3,1107.3,532,969.1,669.3c-15.4,15.3-29.8,31.6-51.2,54.4
		c65.7,64.3,128.6,125.5,191.2,187c91.7,90.1,183.7,179.7,274.5,270.8c69.7,69.9,74.8,160.7,14.7,218.7
		c-61.5,59.3-146.2,52.1-218.2-19.8c-137.7-137.8-274.9-276.1-412.4-414.1c-13.9-14-28.7-27.2-51.1-48.2
		c-63.7,65-124.9,127.9-186.6,190.4c-91.7,92.9-182.9,186.3-275.7,278.1c-67.9,67.2-157.8,71.1-213.9,11.7
		c-58.6-61.9-53.4-145.6,15.6-214.4c133.6-133.4,267.7-266.3,402.8-398.2C478.5,766.3,497,748.2,530.4,714.7z"/>
</g>
</svg>
